<?xml version="1.0" encoding="utf-8"?>

<!DOCTYPE svg PUBLIC "-//W3C//DTD SVG 1.1//EN" "http://www.w3.org/Graphics/SVG/1.1/DTD/svg11.dtd">
<svg version="1.1" id="Layer_1" xmlns="http://www.w3.org/2000/svg" xmlns:xlink="http://www.w3.org/1999/xlink" x="0px" y="0px"
	 viewBox="348 -38.808 1864 1677.617" enable-background="new 348 -38.808 1864 1677.617" xml:space="preserve">
<g>
	<path fill="none" d="M643,1599.352h-3.222C640.315,1599.52,641.575,1599.467,643,1599.352z"/>
	<path fill="none" d="M633.118,1599.954c1.234,0.203,2.526-0.292,3.802-0.601h-6.129
		C631.545,1599.606,632.313,1599.821,633.118,1599.954z"/>
	<path d="M1937.33,1072.45c-3.89,5.4-8.12,9.18-10.9,15.68c-8.14,8.17-12.39,27.9-13.89,39.38c-0.57,4.37,1,47.34-8,38.94
		c-5.77-5.39-9.3-2.06-17.14,0.08c-6.41,1.76-12.44,2.82-19.08,3c-9.39,0.25-2.64,7.14-6.68,9.16c-2.56,1.28-5.18,1.15-7.21,3.61
		c-2.57,3.13-3.02,6.59-5.01,9.96l-9.23,15.59c-1.67,3.35-5.19,6.29-5.19,10.31c0,3.56,1.13,4.96-3.43,5.64
		c-5.08,0.75-5.97,9.67-5.97,14.09c0,5.75-4.86,4.15-7.48,7.4c-3.92,4.88,1.56,11.21-9.67,10.31c-12.06-0.97-10.93,12-13.53,19.82
		c0,3.85-0.15,7.33,2.28,10.39c1.58,1.99,1.51,3.5,0.44,5.82c-2.83,6.14-6.5,13.21-8.17,19.73c-1,3.88-5.19,9.82-5.19,13.3
		c0,1.82,3.42,1.2,4.39,3.26c1.26,2.66,0.4,5.34,0.09,8.19c-2.3,9.18-10.98,18.64-2.19,24.49c5.77,3.85-12.2,11.29-12.4,15.68
		c-0.34,7.6-3.95,2.3-7.21,8.81c-1.59,0-0.54-6.43-3.51-7.92c-3.73-1.87-8.12-4.74-11.17-7.67c-9.58-9.18-11.12-2.04-21.1,3.79
		c-5.57,3.26-6.07,9.46-9.75,14.54l-8.44,11.62l6.24,32.33c1.08,2.97,0.77,4.59-1.67,6.7c-2.7,2.33-1.04,2.36-0.44,5.37
		c0.87,4.4-6.92,8.44-9.93,11.1c-1.54,1.36-1.69,7.64-2.29,9.96c-1.17,4.5-3.63,11.95-6.07,15.85l-6.85,25.55l0.55,7.58
		c-6.08-3.55-12.57-2.16-17.43-8.28c-3.85-4.85-5.28-7.36-5.28-13.92c0-12.94,10.13-22.64,7.92-35.94
		c4.66-18.72-18.15-31.96-27.61-45.64c-11.01-15.91-27.22-32.94-48.7-32.94l-0.35-0.36c0-9.85,2.31-20.76-0.18-30.48
		c-1.78-6.95-4.99-24.77-4.39-31.53c-2.25-10.67-7.91-17.95-7.91-29.42c0-6.87,2.61-15.49,5.8-21.5c7-13.19,4.17-32.4,6.68-47.04
		l-52.29-0.13c-0.41,1.51-0.75,3.03-0.98,4.53c-0.72,4.68,1.32,9.38,1.32,14.19c0,4.17-0.79,8-1.25,11.85l-67.59-0.66l30.21,29.5
		c-0.59,24.84-3.57,21.38,0.56,34.1l2.81,19.73l5.28,13.92l-28.31,28.01l-16.35,9.87l-10.19,13.56l-8.8,18.68l-59.25,66.6
		l-53.09,0.7l-29.89-23.96l-53.1-35.59l-49.05,27.66l0.18,30.48l-32.18,0.71l-15.47,0.53l-40.09,45.28l-6.33-3.17l-63.99-0.53
		l-16.88-27.49c-13.76,4.12-36.56-1.94-51.69-1.94c-25.11,0-40.8,9.77-64,14.45c-12.13,2.45-21.45-4.75-33.93-4.75
		c-27.38-9.16-14.74-31.02-29.71-43.87c-14.58-12.52-23.4-19.42-28.13-38.41c-12.83-3.21-19.84-4.25-33.41-3.17
		c-13.7,1.08-26.9,9.69-39.56,9.69c-9.11,0-19.96-3.65-18.28,8.28c2.6,18.51-11.39,25.73-23.91,36.11
		c-3.66,5.5-8.79,9.06-8.79,15.86c0,5.63,4.7,9.68,3.69,14.98c-2.25,11.75-20.22,20.72-20.22,33.47c0,5.5-1.96,14.53-1.06,19.2
		c0.62,3.19,3.42,7.79,2.82,10.93c-1.74,9.08-18.5,19.38-26.73,22.73l-14.6,10.48c0.46-0.59-3.01-0.13-5.85,0.1h-3.22
		c-0.02-0.01-0.05-0.01-0.07-0.02c-0.9-0.34-1.84-0.21-2.79,0.02h-6.13c-2.33-0.79-4.53-1.97-7.25-2.4
		c-3.45,2.31-5.59-2.9-10.55-1.49c-4.49,1.27-9.69,2.98-14.24,1.76c-3.46-0.93-4.04-1.56-7.74-0.97c-4.55,0.73-5.55-2.53-8.88-4.32
		c-5.27-2.84-5.1,5.96-10.55,3.97c-1.66-0.62-0.86-4.11-1.4-5.64c-1.45-4.12-1.21-4.01,1.75-6.87c1.19-1.91,6.38-6.29,5.54-8.64
		c-1.24-3.47-3.66-3.76-0.09-7.66c0.84-0.92-1.93-2.57-2.63-2.38c-2.88,0.8-2.77,5.53-6.33,5.2c-3.02-0.28-5.97-6.82-5.19-9.34
		l4.57-14.71c4.24,0,7.91,2.43,11.43-1.94c2.78-3.44,3.69-8.21,5.01-12.42c-0.53-2.3-0.35-4.47-1.14-6.78
		c-0.65-1.89-1.11-3.74-1.32-5.73c-0.41-3.82,1.66-8.52,0.44-11.98c-0.66-1.85-1.65-3.68,0.26-5.28c2.93-2.46,5.27-2.87,6.51-6.96
		l-3.69-25.64l-6.6-10.46v-0.01l523.52-392.64l0.01-0.01h835.95v0.01C1938.33,1068.53,1938.44,1070.91,1937.33,1072.45z"/>
	<path fill="#FFFFFF" d="M2168.88,583.81c-5.81,4.65-10.77,12.44-14.51,18.68c-2.14,3.56-7.81,20.1-10.99,20.87
		c-4.06,1-8.4,2.26-7.82,7.67c0.87,8.25-6.19,2.06-8.8,0.35c-6.27,0-3.99,4.32-5.09,8.1c-1.58,5.4-4.84-0.17-4.84-3.25
		c0-11.68-11.54,3.45-15.21,5.81c-7.22,4.65-5.9,4.3-11.34-1.15c-2.48-2.49-4.8,1.38-5.89,3.44c-4.69,8.9-10.69,12.6-20.92,12.6
		c-6.18,0-8.2-1.84-7.47,5.28c1.03,5.79,2.67,10.57-0.97,15.95c-1.91,2.82-6.05,11.45-9.32,11.45c-2.68,0-5.28-1.05-7.82-1.67
		c-5.96-1.46-5.52,5.01-9.49,4.22c-2.72-0.53-3.33-2.54-6.6-0.97c-2.3,1.11-5.36,1.76-7.12-0.61c-1.72-2.32-16.9-7.92-14.5-1.68
		c0.98,2.56,3.56,4.76,2.46,7.67c-0.95,2.49-6.75,5.05,0.53,6.08c1.62,5.72,0.56,14.54-3.43,19.99c-1.78,5.96-4.31,7.19-7.48,11.89
		c-1.2,1.79-1.4,12.87-1.4,15.42c0,2.65,3.65,4.3,5.27,5.81c2.89,2.7,0,8.07,0,11.28c0,4.02,3.61,9.73-0.53,11.01
		c-3.48,1.08-2.86,3.56-4.57,6.17c-4.04,10.36-8.39,22.07-11.25,32.33c-2.59,9.32-5.75,10.44-11.78,16.47
		c-2.84,2.85-1.81,11.08-2.72,14.98c-1.64,4.92-5.49,11.06-2.73,16.03c2.87,5.15-5.54,1.23-5.54,7.93c0,12.1-7.06,20.2-15.02,27.57
		l12.3,94.09c1.25,7.09-3.82,10.74-5.54,16.91c-0.78,2.83-1.27,5.73-2.19,8.55c-1.06,4.75-4.24,8.2-3.69,13.21
		c0.36,3.29,2.42,5.79,3.51,8.81c1.32,3.63-6.24,14.28-7.73,18.06c-0.79,1.99-0.61,4.47-0.47,6.85v0.01h-835.94v-0.01h0.01
		l355.54-266.66l-355.55-266.66h1012.57c3.12,1.62,5.14,2.57,2.64,5.49c-3.01,3.52,0.96,10.46,3.26,13.21
		c2.09,2.67,8.07,4.65,10.98,6.43c1.69,1.04,2.72-5.76,3.08-7.22l0.09-0.09c6.4,0-0.51,4.61,2.55,8.72c2,2.7,8.92,6.82,10.2,1.68
		h0.61c0.98,1.96,8.56-0.42,7.56,1.58c-0.59,1.2-5.25,0.81-4.66,2.47c0.39,1.08,4.48,1.79,4.66,3.08c0.33,0.08,0.26,0.5,0.26,0.8
		c-1.93,0.64,5.5,11.03,5.28,4.31C2160.97,562.36,2168.14,582.24,2168.88,583.81z"/>
	<path fill="#D21034" d="M2114.81,532.68H1102.23l-374.26-280.7v-120.7l669.07-0.25l2.11-6.71l1.99-7.17l7.12-5.98l6.41-5.95
		l4.23,5.86l-3.04,3.39l-4.97,5.63l-3.7,5.11l-2.19,5.99l2.86-0.01h185.84l42.54,32.95l47.47-6.87l12.14-48.81l59.6-11.45
		l27.07-64.66l27.69,9.25L1853.87,0c0.87,1.25,1.87,2.48,3.02,3.72c2.27,2.47,1.49,4.93,2.03,8.02l0.79,4.58
		c0.43,2.53,2.39,4.01,2.99,6.26c0.04,1.42,0.29,3.99,1.75,4.49c0.79,0.27,2.64-0.93,3.96-0.53c2.12,0.65,2.59,3.79,2.46,5.73
		c-0.22,3.16,4.09,7.88,6.33,10.13c3.17,3.18,7.73,6.78,11.95,8.54c5.59,2.36,12.11,2.42,18.03,3.88c1.33,0.33,3.29,1.33,4.65,0.88
		c0.65-0.22,2.79-2.23,3.52-1.5c0.54,0.54,0.03,1.89,0.44,2.56c0.6,0.98,4.33,3.18,5.54,4.14c3.2,2.56,4.6,5.79,5.45,9.69
		c0.97,4.46,3.6,8.02,7.82,10.66c1.65,0.29,3.87,0.35,5.45,0.35c0,4.03-1.25,5.88,2.82,8.98c2.54,1.94,5.73,2.29,8.52,4.14
		c8.29,5.5,12.58,14.32,22.33,17.89c1.33-0.11,4.03-1.86,4.57-0.18c0.97,3,9.45,11.71,12.13,12.6v0.26
		c-3.8,1.26-1.26,14.49-1.84,17.71c-1.79,9.85,0.45,18.3,2.64,27.83c-1.1,4.96,6.88,18.58,9.67,23.08
		c4.66,7.56,8.36,14.4,15.03,20.53c4.42,8.14,13.17,10.43,17.32,19.82c1.53,3.48-0.23,11.76-5.45,8.9
		c-1.99-1.09-8.64-10.98-3.52-6.87l3.52,2.82c4.84,3.88-3.62-8.76-3.96-8.9c-2.39-0.98-4.3-0.18-5.01-3.35
		c-0.54-2.42-2.79-3.82-3.25-5.64c-0.18,0-0.14,0.05-0.18-0.08c-0.74,0.18-1.94,1.62-2.9,1.93c0,3.49,3.65,6.45,1.41,10.57
		c-3.51,6.44,3.86,11.66,4.66,17.89c1.33,10.43-0.4,18.98,2.46,29.51c2.67,5.86,3.99,10.37,5.18,16.56c0.34,1.77,0.9,9.93-1.75,9.34
		c-1.27-0.29-3.92,0.04-3.78,1.85c0.14,1.91,6.35,3.68,1.58,6.07c-3.26,1.64,0.22,9.29,0.88,12.07c1.49,6.27,2.02,13.45,2.02,20
		c0.5,2.77-1.88,7.4-5.1,7.4c0,0.61,1.81,3.45,2.11,4.49c1.76,6,4.54,12.4,7.12,18.32c1.64,3.38,2.46,5.28,2.46,9.08
		c0,3.52-1.36,8.69-3.25,11.54c-3.14,4.74,0.78,8.91,1.49,13.56c-0.17,3.58,2.46,11.38,3.96,14.8c3.26,7.43,1.31,15.71,3.34,23.52
		c2.07,7.98,6.05,13.41,7.03,22.38c0.82,4.21,3.01,7.95,4.22,11.89c1.42,4.62,3.06,12.87,7.65,15.59c3.06,1.83,5.71,3,9.41,3
		c2.47,0,4.25-2.38,6.41-2.38c0.92,4.62,5.05,2.4,8.53,3.26c0.47,1.93,3.78,5.9,3.78,7.4c4.23,3.66,9.89,3.74,13.8,6.96
		c5.72,4.69,9.47,11.1,16.09,14.62C2114.41,532.47,2114.61,532.58,2114.81,532.68z"/>
	<polygon points="1102.22,1066.02 578.7,1458.67 578.7,1458.66 	"/>
	<path opacity="0.99" fill="#007229" enable-background="new    " d="M1457.79,799.35l-355.54,266.66h-0.02l-0.01,0.01
		L578.7,1458.66l-29.71-47.14c-1.31-4.91-6.85-7.59-10.55-10.39c-4.2-3.17-6.19-4.76-9.23-9.16c-4.29-6.23-15.82-8.76-17.14-16.21
		c-1.44-8.05-6.84-7.54-9.85-13.39l-0.34-3.97l6.25-16.82c1.02-4.36,5.27-9.24,5.45-13.57c0.06-1.69-0.19-9.31-1.06-10.48
		c-0.9-1.22-3.94-1.18-4.31-2.64c-0.79-3.17,0.88-6.08,0.88-8.99c-2.82-0.95-6.57,0.18-9.76,0.18c-5.81,0-5.57,2.43-7.91-3.17
		c-1.14-2.76-3.13-2.77-5.1-4.59c-2.42-2.24-5.18-0.45-7.47-2.2c-2.5-1.91-8.24-8.88-9.32-11.71c-1.17-3.11-1.04-6.62-1.67-9.87
		c0.51-7.72,2.11-14.64,4.14-22.02c1.43-5.23,5.01-11.26,5.01-16.65c-1.97-0.5-4.16,1.18-6.6,0.7c-4.07-0.8-3.83,0.41-7.03,1.94
		c-7.11,3.39-1.8-9.62-2.11-12.25c-0.57-4.79-1.55-7.36-3.69-11.8c0-3.27-0.21-5.39-2.9-7.58c-2.42-1.95-0.25-4.49-0.79-6.78
		c-1.94-8.15-8.85-1.4-2.82-10.48c1.63-2.45,5.87-1.28,5.1-4.76c-0.65-2.94,3.49-10.49,2.9-11.45c-2.01-3.28-14.26-4.41-17.76-6.17
		c-2.98-1.49-7.44-4.97-10.19-5.9c0,8.16-4.88,7.52-10.81,9.87c-5.95,2.35-14.45,5.19-20.4,1.76c-1.63-3.69-4.02-6.53-5.45-10.31
		c-1.25-3.3,1.16-4.7-3.34-5.81c0-3.91,2.96-9.78,4.04-13.74c0.99-3.61,6.25-9.98,6.25-12.78c0-5.67,0.95-2.82,4.48-5.19
		c4.5-3.03,0.41-7.65,8-6.35c2.82,0.49,3.45-2.82,4.92-3.96c1.57-1.22,4.54,2.48,6.42-1.76c1.37-3.09,1.95-6.99,5.36-8.2
		c2.23-0.78,7.23-6.05,8.44-8.1c3.9-1.95-1.7-7.77-3.51-8.9c-3.39-2.09-5.56-3.67-4.84-8.01c1.03-6.25-2.8-9.73-6.08-13.84h0.01
		c-1.53-1.92-2.94-3.97-3.69-6.51c-1.7-5.83,3.89-5.98-4.21-10.04c-1.99-1,1.56-3.88,2.46-4.59c3.37-2.65,12.22-11.17,13.89-14.97
		c1.78-4.06,6.22,1.22,7.12-3.61c0.45-5.06,5.81-1.27,7.91-5.99c1.76-3.97,6.9,0.77,9.93-3.61c2.03-2.94,3.37-3.69,6.86-3.88
		c0.74-0.04,3.96-7.69,3.96-8.99c-2.28-0.57-1.48-2.99-1.32-4.4c0.11-1.05-5.47-0.1-6.6-0.53c-4.2-1.6-8.97-7.69-4.74-11.63
		c2.83-2.64-2.54-3.39-1.85-6.52c0.53-2.39,1.24-6.05,2.02-8.28c-1.36-5.52-6.84-1.41-5.36-9.6c0.9-5,1.87-5.15,6.68-6.61
		l27.34-8.28c0-5.14-4.75-10.04-4.48-14.8c0.32-5.78,7.01-5.94,9.84-8.19c1.76-1.4,0.11-6.42,1.14-8.9
		c1.66-3.95,8.26-7.4,11.61-10.13c5.65-4.41,6.87,1.11,4.74-7.48c-0.57-2.32,5.79-5.97,7.21-8.11c2.1-3.17-1.35-3.66-0.79-5.28
		c1.09-3.18,1.75-4.93,1.94-8.55c0.36-6.91-2.23-7.04-6.69-11.27c-4.62-4.4-1.45-10.9,2.82-14.1c2.66-2,9.2-6.16,10.19-9.25
		c6.4-7.01,11.71-7.1,20.57-3.35c6.84,2.9,18.29,0.08,24.53-3.08c4.65-2.35,11.81-4.84,17.05-4.84c7.99,0,15.65,3.14,23.3,3.34
		c1.59,0.61,3,1.36,4.66,1.85c1.25,0.37,2.48,1.06,3.78,1.32c1.81,0.36,2.86,1.61,4.83,1.35V358.76h106.7V251.98h0.01l374.26,280.7
		h0.01v0.01L1457.79,799.35z"/>
	<polygon opacity="0.99" fill="#007229" enable-background="new    " points="1102.22,1066.02 578.7,1458.67 578.7,1458.66 	"/>
	<polygon fill="#FFFFFF" points="1102.25,1066.01 1102.24,1066.02 1102.22,1066.02 1102.23,1066.01 	"/>
	<polygon opacity="0.99" fill="#007229" enable-background="new    " points="1102.25,1066.01 1102.24,1066.02 1102.22,1066.02 
		1102.23,1066.01 	"/>
</g>
</svg>
